<svg width="36" height="34" viewBox="0 0 36 34" fill="none" xmlns="http://www.w3.org/2000/svg">
<mask id="mask0_3005_2432" style="mask-type:luminance" maskUnits="userSpaceOnUse" x="1" y="0" width="34" height="34">
<path d="M35 0H1V34H35V0Z" fill="white"/>
</mask>
<g mask="url(#mask0_3005_2432)">
<path d="M31.759 15.5873L25.8898 14.6086C25.5466 14.0512 24.8644 13.0429 23.8725 12.0327C21.8927 10.0164 19.6133 8.95068 17.2806 8.95068H7.7225C6.16993 8.95068 4.73044 9.79012 3.96577 11.1414L1.3319 15.7962C1.32765 15.8037 1.32446 15.8115 1.32041 15.8191C1.11668 16.1837 1 16.6033 1 17.0499V21.9548C1 22.5049 1.44598 22.9508 1.99609 22.9508H5.18632C5.65455 24.176 6.848 25.0494 8.24339 25.0494C9.63879 25.0494 10.8322 24.176 11.3005 22.9508H23.672C24.1402 24.176 25.3336 25.0494 26.729 25.0494C28.1244 25.0494 29.3178 24.176 29.786 22.9508H34.0039C34.554 22.9508 35 22.5049 35 21.9548V19.3178C35 17.4492 33.6077 15.8482 31.759 15.5873ZM23.3976 14.5182H16.222V10.9429H17.2806C20.104 10.9429 22.2363 13.0302 23.3976 14.5182ZM9.57371 10.9429H14.2299V14.5182H9.57371V10.9429ZM5.69964 12.1225C6.08811 11.436 6.80012 10.9953 7.58152 10.9477V14.5182H4.34402L5.69964 12.1225ZM8.24339 23.0572C7.53929 23.0572 6.96647 22.494 6.96647 21.8016C6.96647 21.1093 7.53929 20.546 8.24339 20.546C8.9475 20.546 9.52032 21.1093 9.52032 21.8016C9.52032 22.494 8.9475 23.0572 8.24339 23.0572ZM26.729 23.0572C26.0248 23.0572 25.452 22.494 25.452 21.8016C25.452 21.1093 26.0249 20.546 26.729 20.546C27.4331 20.546 28.0059 21.1093 28.0059 21.8016C28.0059 22.494 27.4331 23.0572 26.729 23.0572ZM29.8857 20.9586C29.5111 19.5753 28.2381 18.5538 26.729 18.5538C25.2198 18.5538 23.9469 19.5753 23.5721 20.9586H11.4001C11.0255 19.5753 9.75254 18.5538 8.24339 18.5538C6.73425 18.5538 5.4613 19.5753 5.08657 20.9586H2.99219V17.0499C2.99219 16.7524 3.23417 16.5104 3.53167 16.5104H25.183L31.4445 17.5546C31.4541 17.5562 31.4637 17.5577 31.4734 17.559C31.6428 17.5822 31.804 17.6295 31.9541 17.6967C31.5374 17.8159 31.232 18.1988 31.232 18.6538C31.232 19.2039 31.678 19.6499 32.2281 19.6499H33.0078V20.9587L29.8857 20.9586Z" fill="#050B20"/>
</g>
</svg>
