<svg width="15" height="15" viewBox="0 0 15 15" fill="none" xmlns="http://www.w3.org/2000/svg">
<path d="M14.5506 0.209961H5.99503C5.78007 0.209961 5.60613 0.383904 5.60613 0.598862C5.60613 0.81382 5.78007 0.987763 5.99503 0.987763H13.6118L1.05339 13.5462C0.901473 13.6981 0.901473 13.9442 1.05339 14.0961C1.12934 14.172 1.22887 14.21 1.32836 14.21C1.42786 14.21 1.52735 14.172 1.60333 14.0961L14.1617 1.53766V9.15443C14.1617 9.36939 14.3356 9.54333 14.5506 9.54333C14.7656 9.54333 14.9395 9.36939 14.9395 9.15443V0.598862C14.9395 0.383904 14.7655 0.209961 14.5506 0.209961Z" fill="white"/>
</svg>
