<svg width="480" height="316" viewBox="0 0 480 316" fill="none" xmlns="http://www.w3.org/2000/svg">
<path d="M99.0802 136.824C74.7797 136.935 55 137.292 55 137.292C55 137.292 78.5112 106.386 98.992 117.836C119.473 129.287 143 136.889 143 136.889C143 136.889 123.381 136.713 99.0802 136.824Z" fill="#F2F2F2"/>
<path d="M371 146.292C373.761 146.292 376 144.053 376 141.292C376 138.53 373.761 136.292 371 136.292C368.239 136.292 366 138.53 366 141.292C366 144.053 368.239 146.292 371 146.292Z" fill="#FF6584"/>
<path d="M333.99 220.606L371.977 176.985L373.149 178.006L335.162 221.627L333.99 220.606Z" fill="#3F3D56"/>
<path d="M373 185.292C377.418 185.292 381 181.71 381 177.292C381 172.873 377.418 169.292 373 169.292C368.582 169.292 365 172.873 365 177.292C365 181.71 368.582 185.292 373 185.292Z" fill="#3F3D56"/>
<path d="M349.286 204.292C349.286 204.292 364.646 184.719 345 171.292L349.286 204.292Z" fill="#3F3D56"/>
<path d="M94.578 238.696C122.726 290.887 182.467 313.292 182.467 313.292C182.467 313.292 196.57 251.078 168.422 198.887C140.274 146.696 80.5332 124.292 80.5332 124.292C80.5332 124.292 66.4298 186.506 94.578 238.696Z" fill="#3F3D56"/>
<path d="M113.621 221.752C164.431 252.408 184 313.3 184 313.3C184 313.3 121.189 324.488 70.3788 293.832C19.5686 263.175 0 202.284 0 202.284C0 202.284 62.811 191.095 113.621 221.752Z" fill="#111B47"/>
<path d="M315.194 222.022C264.108 252.259 244 313.042 244 313.042C244 313.042 306.719 324.799 357.806 294.562C408.892 264.324 429 203.542 429 203.542C429 203.542 366.281 191.784 315.194 222.022Z" fill="#3F3D56"/>
<path d="M333.739 240.512C305.134 292.427 245.207 314.292 245.207 314.292C245.207 314.292 231.657 251.986 260.261 200.071C288.866 148.156 348.793 126.292 348.793 126.292C348.793 126.292 362.343 188.598 333.739 240.512Z" fill="#111B47"/>
<path d="M229.881 98.3318C223.866 92.8891 223.024 83.7425 227.944 77.2918C227.63 77.5864 227.323 77.8923 227.029 78.2175C221.25 84.6111 221.747 94.4804 228.138 100.261C234.528 106.042 244.393 105.545 250.171 99.1517C250.465 98.8265 250.739 98.4902 251 98.148C245.079 103.693 235.898 103.773 229.881 98.3318Z" fill="#2F2E41"/>
<path d="M215.5 109.292C233.449 109.292 248 94.741 248 76.7918C248 58.8425 233.449 44.2918 215.5 44.2918C197.551 44.2918 183 58.8425 183 76.7918C183 94.741 197.551 109.292 215.5 109.292Z" fill="#2F2E41"/>
<path d="M206.238 118.323L207.212 115.817L189.476 130.657L168.038 142.606C168.038 142.606 157.123 100.978 156.344 100.207C155.564 99.4357 141.532 70.1415 135.295 84.0177C129.058 97.8939 147.378 105.988 147.378 105.988C147.378 105.988 147.963 156.675 166.673 156.29C185.384 155.904 208.576 139.137 208.966 137.595C209.356 136.053 206.238 118.323 206.238 118.323Z" fill="#FFB8B8"/>
<path d="M211.5 110.292C222.27 110.292 231 101.561 231 90.7918C231 80.0222 222.27 71.2918 211.5 71.2918C200.73 71.2918 192 80.0222 192 90.7918C192 101.561 200.73 110.292 211.5 110.292Z" fill="#FFB8B8"/>
<path d="M214.879 105.042C214.879 105.042 219.943 111.61 218.385 112.383C216.827 113.155 207.868 113.542 202.414 120.11C196.961 126.678 209.036 143.292 209.036 143.292L255 112.769L236.303 106.587C236.303 106.587 223.449 99.6327 223.838 92.2918L214.879 105.042Z" fill="#FFB8B8"/>
<path d="M277 315.292H225.37C222.445 293.954 221.093 274.4 221.093 274.4C221.093 274.4 220.339 294.069 218.331 315.292H152C161.403 252.451 205.978 184.307 205.978 184.307C205.978 184.307 206.366 175.025 207.529 173.477C208.693 171.934 200.941 171.547 197.451 159.947C195.323 152.866 197.236 148.233 199.055 145.701C199.679 144.789 200.447 143.984 201.329 143.317C201.329 143.317 202.105 135.2 201.329 134.039C201.23 133.887 201.995 133.354 203.41 132.543C204.589 131.863 206.219 130.99 208.169 129.986C219.338 124.207 240.957 113.983 248.363 110.5C249.987 109.731 250.931 109.292 250.931 109.292L264.107 113.931C274.568 117.408 274.568 139.452 274.568 139.452L273.976 140.351L248.992 178.121C251.319 179.663 246.67 189.333 246.67 189.333C246.67 189.333 253.295 198.83 258.682 213.327C261.729 221.395 263.807 229.795 264.872 238.352C265.551 243.897 265.685 249.495 265.27 255.066C263.834 273.694 270.218 296.334 277 315.292Z" fill="#2F2E41"/>
<path d="M263.951 115.726C263.091 115.237 262.063 115.157 261.139 115.506C260.216 115.856 259.492 116.599 259.161 117.538C258.007 120.746 256.838 127.434 257.255 141.339C258.021 166.912 258.404 184.348 258.404 184.348V223.095C258.404 223.095 241.551 260.292 250.744 260.292C259.936 260.292 266.447 230.844 266.447 230.844C266.447 230.844 274.874 186.286 272.192 178.536C272.192 178.536 279.752 125.001 263.951 115.726Z" fill="#FFB8B8"/>
<path d="M209.5 85.2918C218.613 85.2918 226 80.143 226 73.7918C226 67.4405 218.613 62.2918 209.5 62.2918C200.387 62.2918 193 67.4405 193 73.7918C193 80.143 200.387 85.2918 209.5 85.2918Z" fill="#2F2E41"/>
<path d="M236 64.2918C244.837 64.2918 252 57.1283 252 48.2918C252 39.4552 244.837 32.2918 236 32.2918C227.163 32.2918 220 39.4552 220 48.2918C220 57.1283 227.163 64.2918 236 64.2918Z" fill="#2F2E41"/>
<path d="M247 59.6764C238.682 59.6752 231.752 53.422 231.06 45.2918C231.023 45.7234 231 46.1587 231 46.5995C231 55.2661 238.163 62.2918 247 62.2918C255.837 62.2918 263 55.2661 263 46.5995C263 46.1587 262.977 45.7234 262.94 45.2918C262.248 53.422 255.318 59.6753 247 59.6764Z" fill="#2F2E41"/>
<path d="M230.389 87.3102C231.118 87.1362 231.386 85.6452 230.988 83.98C230.591 82.3148 229.678 81.1059 228.949 81.28C228.22 81.454 227.952 82.9449 228.35 84.6101C228.748 86.2754 229.661 87.4842 230.389 87.3102Z" fill="#FFB8B8"/>
<path d="M230 87.2918C230.552 87.2918 231 86.8441 231 86.2918C231 85.7395 230.552 85.2918 230 85.2918C229.448 85.2918 229 85.7395 229 86.2918C229 86.8441 229.448 87.2918 230 87.2918Z" fill="#F2F2F2"/>
<path fill-rule="evenodd" clip-rule="evenodd" d="M40 146.792C40 150.382 42.9101 153.292 46.5 153.292C50.0882 153.288 52.996 150.38 53 146.792C53 143.202 50.0899 140.292 46.5 140.292C42.9101 140.292 40 143.202 40 146.792ZM41.0833 146.792C41.0833 143.8 43.5085 141.375 46.5 141.375C49.4901 141.379 51.9132 143.802 51.9167 146.792C51.9167 149.783 49.4915 152.208 46.5 152.208C43.5085 152.208 41.0833 149.783 41.0833 146.792Z" fill="#3F3D56"/>
<path fill-rule="evenodd" clip-rule="evenodd" d="M304 107.292H318V93.2918H304V107.292ZM316.923 106.215H305.077V94.3687H316.923V106.215Z" fill="#3F3D56"/>
<path d="M436.08 179.824C411.78 179.935 392 180.292 392 180.292C392 180.292 415.511 149.386 435.992 160.836C456.473 172.287 480 179.889 480 179.889C480 179.889 460.381 179.713 436.08 179.824Z" fill="#F2F2F2"/>
<path d="M361.08 74.8243C336.78 74.9355 317 75.2918 317 75.2918C317 75.2918 340.511 44.386 360.992 55.8363C381.473 67.2867 405 74.8893 405 74.8893C405 74.8893 385.381 74.7132 361.08 74.8243Z" fill="#F2F2F2"/>
<path d="M131.358 88.4247L75.2363 59.4529C71.4039 57.4744 69.8946 52.7516 71.8653 48.9041L85.0868 23.0909C85.4748 22.3334 86.1559 21.7692 86.9705 21.5308L131.205 8.58219C134.877 7.50715 138.746 9.5042 140.011 13.1284L154.545 54.7492C155.279 56.8505 155.12 59.1622 154.106 61.1423L141.865 85.0405C140.919 86.8881 139.28 88.2826 137.31 88.9173C135.339 89.552 133.198 89.3748 131.358 88.4247Z" fill="#F2F2F2"/>
<path d="M133.347 78.8678L76.8055 54.6267C74.9836 53.6859 76.6919 55.132 77.6287 53.3024L84.7363 24.2918L154 60.0592L136.489 81.8026C135.553 83.6322 135.169 79.8086 133.347 78.8678Z" fill="black"/>
<path d="M86.1565 61.9324C82.136 59.865 80.5526 54.9297 82.6201 50.9091L101.66 13.8822C103.727 9.86166 108.662 8.27832 112.683 10.3458L149.71 29.3854C153.73 31.4529 155.314 36.3882 153.246 40.4087L134.207 77.4356C132.139 81.4562 127.204 83.0395 123.183 80.9721L86.1565 61.9324Z" fill="#111B47"/>
<path d="M145 55.8773L130.458 84.2918L79 57.7057L93.542 29.2918L112.877 55.0795L145 55.8773Z" fill="black"/>
<path d="M112.252 56.9486L87.2877 23.8939C86.9738 23.4783 86.4677 23.2529 85.948 23.2973C85.4282 23.3416 84.9678 23.6495 84.7293 24.1122L70.5238 51.6678C69.9499 52.7812 69.8428 54.0764 70.2262 55.2685C70.6096 56.4606 71.4521 57.4519 72.5683 58.0244L134.46 89.7693C135.577 90.3418 136.875 90.4486 138.07 90.0661C139.265 89.6837 140.259 88.8433 140.833 87.73L154.795 60.6464C155.086 60.0818 155.066 59.4075 154.741 58.8614C154.416 58.3154 153.833 57.9743 153.196 57.9586L112.252 56.9486Z" fill="#F2F2F2"/>
<path d="M107.412 13.6239L121.839 21.0423L120.79 23.0825L106.363 15.664L107.412 13.6239Z" fill="#F2F2F2"/>
<path d="M102.425 20.4564L145.268 42.4869L144.669 43.6527L101.826 21.6222L102.425 20.4564Z" fill="#F2F2F2"/>
<path d="M100.402 24.391L143.245 46.4214L142.645 47.5872L99.8023 25.5568L100.402 24.391Z" fill="#F2F2F2"/>
<path d="M98.3786 28.3255L141.222 50.356L140.622 51.5218L97.7791 29.4913L98.3786 28.3255Z" fill="#F2F2F2"/>
<path d="M113.073 11.5735C114.773 8.26776 113.476 4.21241 110.176 2.51564C106.877 0.818867 102.824 2.1232 101.124 5.42896C99.4238 8.73471 100.721 12.7901 104.021 14.4868C107.32 16.1836 111.373 14.8793 113.073 11.5735Z" fill="white"/>
<path fill-rule="evenodd" clip-rule="evenodd" d="M99.8874 4.63418C101.908 0.705766 106.733 -0.84128 110.664 1.17875C114.583 3.20782 116.128 8.01983 114.121 11.9494C112.1 15.8778 107.275 17.4248 103.345 15.4048C99.4142 13.3848 97.8664 8.56259 99.8874 4.63418ZM101.82 5.81344L103.592 11.3334L113.541 8.14895L113.044 6.60067L104.646 9.29357L103.369 5.31672L101.82 5.81344Z" fill="#57B894"/>
</svg>
