<svg width="61" height="61" viewBox="0 0 61 61" fill="none" xmlns="http://www.w3.org/2000/svg">
<g clip-path="url(#clip0_3004_1997)">
<g clip-path="url(#clip1_3004_1997)">
<path d="M24.0465 4.72314C20.3452 4.72314 16.9904 6.90084 15.4836 10.2814L9.38656 23.9606C5.73148 24.2118 2.84375 27.2543 2.84375 30.9731V36.3638C2.84375 39.5998 5.46711 42.2231 8.70312 42.2231H10.3092C10.3179 41.7722 10.3293 41.3214 10.3438 40.8705C9.9623 40.093 9.74727 39.219 9.74727 38.2945L9.64062 34.1372C9.64062 31.0627 10.2662 29.8794 12.5483 29.4197C13.6331 29.2011 14.5413 28.462 14.9858 27.4486L22.5148 10.2814C24.0215 6.90084 27.3764 4.72314 31.0777 4.72314H24.0465Z" fill="#EEF1FB"/>
<path d="M8.70312 42.2231C5.46711 42.2231 2.84375 39.5998 2.84375 36.3638V30.9731C2.84375 27.2543 5.73148 24.2118 9.38656 23.9606L15.4836 10.2814C16.9903 6.90084 20.3451 4.72314 24.0465 4.72314H34.7217C38.2441 4.72314 41.4692 6.69752 43.0711 9.83463L46.0859 15.7388M58.1562 30.9731C58.1562 27.0899 55.0082 23.9419 51.125 23.9419H19.1328M28.7422 15.7388V4.84033M32.9609 42.2231H27.6873M21.242 37.5356C18.6532 37.5356 16.5545 39.6343 16.5545 42.2231C16.5545 44.8119 18.6532 46.9106 21.242 46.9106C23.8307 46.9106 25.9295 44.8119 25.9295 42.2231C25.9295 39.6343 23.8309 37.5356 21.242 37.5356Z" stroke="#405FF2" stroke-width="3" stroke-miterlimit="10" stroke-linecap="round" stroke-linejoin="round"/>
<path d="M58.1562 41.8716C58.1562 46.3697 54.5097 50.0747 50.0117 50.0747C45.5136 50.0747 41.8671 46.4283 41.8671 41.9302C41.8671 37.432 45.5722 33.7856 50.0703 33.7856M44.0351 48.3755L36.5938 55.8169" stroke="#FF5CF3" stroke-width="3" stroke-miterlimit="10" stroke-linecap="round" stroke-linejoin="round"/>
</g>
</g>
<defs>
<clipPath id="clip0_3004_1997">
<rect width="60" height="60" fill="white" transform="translate(0.5 0.27002)"/>
</clipPath>
<clipPath id="clip1_3004_1997">
<rect width="60" height="60" fill="white" transform="translate(0.5 0.27002)"/>
</clipPath>
</defs>
</svg>
