<svg width="12" height="12" viewBox="0 0 12 12" fill="none" xmlns="http://www.w3.org/2000/svg">
<path d="M9.17652 6.6L4.02083 11.76C3.86096 11.92 3.66779 12 3.44131 12C3.21484 12 3.015 11.92 2.84181 11.76C2.66863 11.6 2.58203 11.4 2.58203 11.16C2.58203 10.92 2.67529 10.72 2.8618 10.56L7.41799 6L2.8618 1.44C2.67529 1.28 2.58203 1.08 2.58203 0.84C2.58203 0.6 2.66863 0.400001 2.84181 0.240001C3.015 0.0799999 3.21484 0 3.44131 0C3.66779 0 3.86096 0.0799999 4.02083 0.240001L9.17652 5.4C9.36303 5.56 9.45628 5.76 9.45628 6C9.45628 6.24 9.36303 6.44 9.17652 6.6Z" fill="#050B20"/>
</svg>
