<svg width="10" height="13" viewBox="0 0 10 13" fill="none" xmlns="http://www.w3.org/2000/svg">
<path d="M8.40031 12.8801C8.16031 12.8801 7.93365 12.8135 7.72031 12.6801L5.12031 11.0401C5.04031 10.9868 4.96031 10.9868 4.88031 11.0401L2.28031 12.6801C2.04031 12.8401 1.77365 12.9001 1.48031 12.8601C1.18698 12.8201 0.933646 12.7068 0.720312 12.5201C0.453646 12.2801 0.320312 11.9735 0.320312 11.6001V2.16013C0.320312 1.81346 0.446979 1.51346 0.700312 1.26013C0.953646 1.00679 1.25365 0.880127 1.60031 0.880127H8.40031C8.74698 0.880127 9.04698 1.00679 9.30031 1.26013C9.55365 1.51346 9.68031 1.81346 9.68031 2.16013V11.6001C9.68031 11.9468 9.55365 12.2468 9.30031 12.5001C9.04698 12.7535 8.74698 12.8801 8.40031 12.8801ZM5.00031 9.96013C5.24031 9.96013 5.46698 10.0268 5.68031 10.1601L8.28031 11.8001C8.30698 11.8268 8.34698 11.8401 8.40031 11.8401C8.45365 11.8401 8.50031 11.8201 8.54031 11.7801C8.58031 11.7401 8.60031 11.6801 8.60031 11.6001V2.16013C8.60031 2.08013 8.58031 2.02013 8.54031 1.98013C8.50031 1.94013 8.45365 1.92013 8.40031 1.92013H1.60031C1.54698 1.92013 1.50031 1.94013 1.46031 1.98013C1.42031 2.02013 1.40031 2.08013 1.40031 2.16013V11.6001C1.40031 11.6801 1.43365 11.7468 1.50031 11.8001C1.56698 11.8535 1.64031 11.8535 1.72031 11.8001L4.32031 10.1601C4.53365 10.0268 4.76031 9.96013 5.00031 9.96013Z" fill="#050B20"/>
</svg>
