<svg width="15" height="13" viewBox="0 0 15 13" fill="none" xmlns="http://www.w3.org/2000/svg">
<path d="M14.5 5.4957H13.825L12.0887 1.41961C12.0102 1.2352 11.882 1.07851 11.7199 0.968547C11.5577 0.858581 11.3684 0.800051 11.175 0.800049H3.825C3.63159 0.800051 3.44233 0.858581 3.28014 0.968547C3.11796 1.07851 2.98982 1.2352 2.91125 1.41961L1.175 5.4957H0.5C0.367392 5.4957 0.240215 5.55067 0.146447 5.64851C0.0526784 5.74636 0 5.87907 0 6.01744C0 6.15581 0.0526784 6.28852 0.146447 6.38637C0.240215 6.48421 0.367392 6.53918 0.5 6.53918H1V11.7566C1 12.0333 1.10536 12.2987 1.29289 12.4944C1.48043 12.6901 1.73478 12.8 2 12.8H3.5C3.76522 12.8 4.01957 12.6901 4.20711 12.4944C4.39464 12.2987 4.5 12.0333 4.5 11.7566V10.7131H10.5V11.7566C10.5 12.0333 10.6054 12.2987 10.7929 12.4944C10.9804 12.6901 11.2348 12.8 11.5 12.8H13C13.2652 12.8 13.5196 12.6901 13.7071 12.4944C13.8946 12.2987 14 12.0333 14 11.7566V6.53918H14.5C14.6326 6.53918 14.7598 6.48421 14.8536 6.38637C14.9473 6.28852 15 6.15581 15 6.01744C15 5.87907 14.9473 5.74636 14.8536 5.64851C14.7598 5.55067 14.6326 5.4957 14.5 5.4957ZM3.825 1.84353H11.175L12.7306 5.4957H2.26938L3.825 1.84353ZM3.5 11.7566H2V10.7131H3.5V11.7566ZM11.5 11.7566V10.7131H13V11.7566H11.5ZM13 9.66961H2V6.53918H13V9.66961ZM3 8.1044C3 7.96602 3.05268 7.83332 3.14645 7.73547C3.24021 7.63763 3.36739 7.58266 3.5 7.58266H4.5C4.63261 7.58266 4.75979 7.63763 4.85355 7.73547C4.94732 7.83332 5 7.96602 5 8.1044C5 8.24277 4.94732 8.37548 4.85355 8.47332C4.75979 8.57117 4.63261 8.62614 4.5 8.62614H3.5C3.36739 8.62614 3.24021 8.57117 3.14645 8.47332C3.05268 8.37548 3 8.24277 3 8.1044ZM10 8.1044C10 7.96602 10.0527 7.83332 10.1464 7.73547C10.2402 7.63763 10.3674 7.58266 10.5 7.58266H11.5C11.6326 7.58266 11.7598 7.63763 11.8536 7.73547C11.9473 7.83332 12 7.96602 12 8.1044C12 8.24277 11.9473 8.37548 11.8536 8.47332C11.7598 8.57117 11.6326 8.62614 11.5 8.62614H10.5C10.3674 8.62614 10.2402 8.57117 10.1464 8.47332C10.0527 8.37548 10 8.24277 10 8.1044Z" fill="black"/>
</svg>
