<svg width="13" height="14" viewBox="0 0 13 14" fill="none" xmlns="http://www.w3.org/2000/svg">
<path d="M12.3814 6.56568L6.5625 0.746733C6.47576 0.659299 6.37251 0.589979 6.25874 0.542803C6.14498 0.495627 6.02297 0.471535 5.89981 0.471929H0.468755C0.344434 0.471929 0.225206 0.521315 0.137299 0.609222C0.0493909 0.69713 4.74313e-06 0.816358 4.74313e-06 0.940679V6.37173C-0.000388734 6.49489 0.0237028 6.6169 0.0708792 6.73067C0.118056 6.84443 0.187376 6.94769 0.274809 7.03443L6.09375 12.8534C6.18081 12.9405 6.28417 13.0095 6.39793 13.0567C6.51168 13.1038 6.63361 13.128 6.75674 13.128C6.87988 13.128 7.0018 13.1038 7.11556 13.0567C7.22931 13.0095 7.33267 12.9405 7.41973 12.8534L12.3814 7.89166C12.4685 7.8046 12.5376 7.70124 12.5847 7.58748C12.6319 7.47373 12.6561 7.3518 12.6561 7.22867C12.6561 7.10553 12.6319 6.98361 12.5847 6.86985C12.5376 6.75609 12.4685 6.65274 12.3814 6.56568ZM6.75645 12.1907L0.937505 6.37173V1.40943H5.89981L11.7188 7.22837L6.75645 12.1907ZM3.75 3.5188C3.75 3.65787 3.70877 3.79381 3.63151 3.90944C3.55425 4.02507 3.44443 4.11519 3.31595 4.16841C3.18747 4.22162 3.0461 4.23555 2.90971 4.20842C2.77331 4.18129 2.64803 4.11432 2.54969 4.01599C2.45136 3.91765 2.3844 3.79237 2.35726 3.65598C2.33013 3.51958 2.34406 3.37821 2.39728 3.24973C2.45049 3.12125 2.54062 3.01144 2.65624 2.93418C2.77187 2.85692 2.90781 2.81568 3.04688 2.81568C3.23336 2.81568 3.4122 2.88976 3.54406 3.02162C3.67593 3.15348 3.75 3.33232 3.75 3.5188Z" fill="black"/>
</svg>
