<svg width="15" height="16" viewBox="0 0 15 16" fill="none" xmlns="http://www.w3.org/2000/svg">
<path d="M14.4 3.5817L8.05385 0.141512C7.88428 0.0486893 7.69372 0 7.5 0C7.30627 0 7.11572 0.0486893 6.94615 0.141512L0.6 3.58313C0.418766 3.68137 0.267478 3.82602 0.161936 4.00197C0.0563944 4.17792 0.000468936 4.37872 0 4.58339V11.4166C0.000468936 11.6213 0.0563944 11.8221 0.161936 11.998C0.267478 12.174 0.418766 12.3186 0.6 12.4169L6.94615 15.8585C7.11572 15.9513 7.30627 16 7.5 16C7.69372 16 7.88428 15.9513 8.05385 15.8585L14.4 12.4169C14.5812 12.3186 14.7325 12.174 14.8381 11.998C14.9436 11.8221 14.9995 11.6213 15 11.4166V4.5841C14.9999 4.37907 14.9442 4.17782 14.8386 4.00146C14.7331 3.8251 14.5816 3.68012 14.4 3.5817ZM7.5 1.14177L13.2937 4.28546L11.1469 5.45005L5.3524 2.30637L7.5 1.14177ZM7.5 7.42914L1.70625 4.28546L4.15096 2.95939L9.94471 6.10307L7.5 7.42914ZM1.15385 5.28572L6.92308 8.41368V14.5431L1.15385 11.4173V5.28572ZM13.8462 11.4145L8.07692 14.5431V8.41654L10.3846 7.1655V9.71545C10.3846 9.86704 10.4454 10.0124 10.5536 10.1196C10.6618 10.2268 10.8085 10.287 10.9615 10.287C11.1145 10.287 11.2613 10.2268 11.3695 10.1196C11.4777 10.0124 11.5385 9.86704 11.5385 9.71545V6.53962L13.8462 5.28572V11.4138V11.4145Z" fill="black"/>
</svg>
