<svg width="31" height="39" viewBox="0 0 31 39" fill="none" xmlns="http://www.w3.org/2000/svg">
<path d="M28.625 10.125H23V8.25C23 6.26088 22.2098 4.35322 20.8033 2.9467C19.3968 1.54018 17.4891 0.75 15.5 0.75C13.5109 0.75 11.6032 1.54018 10.1967 2.9467C8.79018 4.35322 8 6.26088 8 8.25V10.125H2.375C1.87772 10.125 1.40081 10.3225 1.04918 10.6742C0.697544 11.0258 0.5 11.5027 0.5 12V32.625C0.5 34.1168 1.09263 35.5476 2.14752 36.6025C3.20242 37.6574 4.63316 38.25 6.125 38.25H24.875C26.3668 38.25 27.7976 37.6574 28.8525 36.6025C29.9074 35.5476 30.5 34.1168 30.5 32.625V12C30.5 11.5027 30.3025 11.0258 29.9508 10.6742C29.5992 10.3225 29.1223 10.125 28.625 10.125ZM11.75 8.25C11.75 7.25544 12.1451 6.30161 12.8484 5.59835C13.5516 4.89509 14.5054 4.5 15.5 4.5C16.4946 4.5 17.4484 4.89509 18.1516 5.59835C18.8549 6.30161 19.25 7.25544 19.25 8.25V10.125H11.75V8.25ZM26.75 32.625C26.75 33.1223 26.5525 33.5992 26.2008 33.9508C25.8492 34.3025 25.3723 34.5 24.875 34.5H6.125C5.62772 34.5 5.15081 34.3025 4.79918 33.9508C4.44754 33.5992 4.25 33.1223 4.25 32.625V13.875H8V15.75C8 16.2473 8.19754 16.7242 8.54918 17.0758C8.90081 17.4275 9.37772 17.625 9.875 17.625C10.3723 17.625 10.8492 17.4275 11.2008 17.0758C11.5525 16.7242 11.75 16.2473 11.75 15.75V13.875H19.25V15.75C19.25 16.2473 19.4475 16.7242 19.7992 17.0758C20.1508 17.4275 20.6277 17.625 21.125 17.625C21.6223 17.625 22.0992 17.4275 22.4508 17.0758C22.8025 16.7242 23 16.2473 23 15.75V13.875H26.75V32.625Z" fill="#EA580C"/>
</svg>
