<svg width="43" height="43" viewBox="0 0 43 43" fill="none" xmlns="http://www.w3.org/2000/svg">
<path d="M40.25 8.375H2.75C2.25272 8.375 1.77581 8.57254 1.42417 8.92418C1.07254 9.27581 0.875 9.75272 0.875 10.25V17.75C0.878262 18.9105 1.2404 20.0416 1.91176 20.9882C2.58312 21.9349 3.53084 22.6507 4.625 23.0375V40.25C4.625 40.7473 4.82254 41.2242 5.17417 41.5758C5.52581 41.9275 6.00272 42.125 6.5 42.125H36.5C36.9973 42.125 37.4742 41.9275 37.8258 41.5758C38.1775 41.2242 38.375 40.7473 38.375 40.25V23.0375C39.4692 22.6507 40.4169 21.9349 41.0882 20.9882C41.7596 20.0416 42.1217 18.9105 42.125 17.75V10.25C42.125 9.75272 41.9275 9.27581 41.5758 8.92418C41.2242 8.57254 40.7473 8.375 40.25 8.375ZM27.125 12.125H30.875V17.75C30.875 18.2473 30.6775 18.7242 30.3258 19.0758C29.9742 19.4275 29.4973 19.625 29 19.625C28.5027 19.625 28.0258 19.4275 27.6742 19.0758C27.3225 18.7242 27.125 18.2473 27.125 17.75V12.125ZM19.625 12.125H23.375V17.75C23.375 18.2473 23.1775 18.7242 22.8258 19.0758C22.4742 19.4275 21.9973 19.625 21.5 19.625C21.0027 19.625 20.5258 19.4275 20.1742 19.0758C19.8225 18.7242 19.625 18.2473 19.625 17.75V12.125ZM12.125 12.125H15.875V17.75C15.875 18.2473 15.6775 18.7242 15.3258 19.0758C14.9742 19.4275 14.4973 19.625 14 19.625C13.5027 19.625 13.0258 19.4275 12.6742 19.0758C12.3225 18.7242 12.125 18.2473 12.125 17.75V12.125ZM6.5 19.625C6.00272 19.625 5.52581 19.4275 5.17417 19.0758C4.82254 18.7242 4.625 18.2473 4.625 17.75V12.125H8.375V17.75C8.375 18.2473 8.17746 18.7242 7.82582 19.0758C7.47419 19.4275 6.99728 19.625 6.5 19.625ZM25.25 38.375H17.75V34.625C17.75 33.6304 18.1451 32.6766 18.8484 31.9734C19.5516 31.2701 20.5054 30.875 21.5 30.875C22.4946 30.875 23.4484 31.2701 24.1516 31.9734C24.8549 32.6766 25.25 33.6304 25.25 34.625V38.375ZM34.625 38.375H29V34.625C29 32.6359 28.2098 30.7282 26.8033 29.3217C25.3968 27.9152 23.4891 27.125 21.5 27.125C19.5109 27.125 17.6032 27.9152 16.1967 29.3217C14.7902 30.7282 14 32.6359 14 34.625V38.375H8.375V23.0375C9.06419 22.7817 9.69995 22.4002 10.25 21.9125C11.2813 22.8349 12.6164 23.3449 14 23.3449C15.3836 23.3449 16.7187 22.8349 17.75 21.9125C18.7813 22.8349 20.1164 23.3449 21.5 23.3449C22.8836 23.3449 24.2187 22.8349 25.25 21.9125C26.2813 22.8349 27.6164 23.3449 29 23.3449C30.3836 23.3449 31.7187 22.8349 32.75 21.9125C33.3001 22.4002 33.9358 22.7817 34.625 23.0375V38.375ZM38.375 17.75C38.375 18.2473 38.1775 18.7242 37.8258 19.0758C37.4742 19.4275 36.9973 19.625 36.5 19.625C36.0027 19.625 35.5258 19.4275 35.1742 19.0758C34.8225 18.7242 34.625 18.2473 34.625 17.75V12.125H38.375V17.75ZM7.0625 4.625H36.5C36.9973 4.625 37.4742 4.42746 37.8258 4.07583C38.1775 3.72419 38.375 3.24728 38.375 2.75C38.375 2.25272 38.1775 1.77581 37.8258 1.42417C37.4742 1.07254 36.9973 0.875 36.5 0.875H7.0625C6.56522 0.875 6.08831 1.07254 5.73667 1.42417C5.38504 1.77581 5.1875 2.25272 5.1875 2.75C5.1875 3.24728 5.38504 3.72419 5.73667 4.07583C6.08831 4.42746 6.56522 4.625 7.0625 4.625V4.625Z" fill="#7C3AED"/>
</svg>
